<svg width="110" height="25" viewBox="0 0 110 25" fill="none" xmlns="http://www.w3.org/2000/svg">
  <path fill-rule="evenodd" clip-rule="evenodd" d="M20.5979 22.1959C20.5979 23.0026 20.5979 23.406 20.7546 23.7141C20.8924 23.9851 21.1124 24.2054 21.3829 24.3434C21.6904 24.5004 22.093 24.5002 22.8981 24.5L30.7836 24.4975C32.7848 24.4968 33.7854 24.4965 34.6064 24.2762C36.8395 23.6769 38.5835 21.9288 39.1809 19.691C39.4005 18.8682 39.4005 17.8656 39.4005 15.8605C39.4005 13.4604 37.2448 13.7004 37.2448 12.4404C37.2448 11.1803 39.0412 11.4203 39.0412 9.14026C39.0412 7.13146 39.0412 6.12706 38.8208 5.303C38.2228 3.06673 36.4796 1.32001 34.2479 0.720807C33.4255 0.5 32.4231 0.5 30.4184 0.5H22.8973C22.0924 0.5 21.69 0.5 21.3826 0.656955C21.1122 0.795017 20.8923 1.01532 20.7545 1.28628C20.5979 1.59432 20.5979 1.99757 20.5979 2.80407V22.1959Z" fill="#FFDB00"/>
  <path d="M47.0652 15.7405H58.5624V19.5806H47.0652V15.7405Z" fill="#FFDB00"/>
  <path d="M2.29942 24.2607C1.49455 24.2607 1.09211 24.2607 0.784692 24.1038C0.514277 23.9657 0.294422 23.7454 0.156639 23.4744C0 23.1664 0 22.7631 0 21.9566V0.740007H3.68755C4.49242 0.740007 4.89486 0.740007 5.20228 0.896962C5.4727 1.03502 5.69255 1.25532 5.83033 1.52628C5.98697 1.83433 5.98697 2.23758 5.98697 3.04408V17.5885C5.98697 17.9918 5.98697 18.1934 6.06529 18.3474C6.13418 18.4829 6.24411 18.593 6.37932 18.6621C6.53303 18.7405 6.73425 18.7405 7.13668 18.7405H15.7281C16.5329 18.7405 16.9354 18.7405 17.2428 18.8975C17.5132 19.0356 17.7331 19.2559 17.8708 19.5268C18.0275 19.8349 18.0275 20.2381 18.0275 21.0446V24.2607H2.29942Z" fill="#FFDB00"/>
  <path d="M47.6349 2.22875C47.8174 1.65088 47.9087 1.36195 48.0834 1.14804C48.2376 0.959182 48.4373 0.812696 48.6635 0.722341C48.9198 0.620004 49.2222 0.620004 49.8271 0.620004H54.6031C55.2079 0.620004 55.5104 0.620004 55.7666 0.722317C55.9928 0.81265 56.1924 0.959103 56.3466 1.14793C56.5213 1.36179 56.6126 1.65067 56.7952 2.22842L63.7589 24.2607H59.4206C58.8172 24.2607 58.5155 24.2607 58.2597 24.1588C58.0339 24.0688 57.8345 23.9229 57.6802 23.7346C57.5055 23.5215 57.4137 23.2335 57.2302 22.6575L52.215 6.92019L47.2017 22.6573C47.0182 23.2333 46.9264 23.5214 46.7517 23.7346C46.5974 23.9228 46.3981 24.0687 46.1722 24.1588C45.9164 24.2607 45.6146 24.2607 45.0112 24.2607H40.675L47.6349 2.22875Z" fill="#FFDB00"/>
  <path d="M65.6283 3.04408C65.6283 2.23758 65.6283 1.83433 65.7849 1.52628C65.9227 1.25532 66.1426 1.03502 66.413 0.896962C66.7204 0.740007 67.1228 0.740007 67.9277 0.740007H70.0439C70.5294 0.740007 70.7721 0.740007 70.9893 0.81096C71.1814 0.873738 71.3582 0.976411 71.508 1.11228C71.6774 1.26584 71.798 1.47692 72.0393 1.8991L79.4009 14.7804V3.04408C79.4009 2.23758 79.4009 1.83433 79.5575 1.52628C79.6953 1.25532 79.9152 1.03502 80.1856 0.896962C80.493 0.740007 80.8954 0.740007 81.7003 0.740007H85.1495V21.953C85.1495 22.7588 85.1495 23.1617 84.993 23.4695C84.8554 23.7404 84.6358 23.9606 84.3657 24.0988C84.0586 24.2559 83.6565 24.2563 82.8524 24.2571L80.7355 24.2593C80.2494 24.2598 80.0064 24.2601 79.789 24.1892C79.5966 24.1265 79.4196 24.0238 79.2696 23.8879C79.1 23.7342 78.9792 23.5229 78.7377 23.1002L71.3769 10.2203V21.9566C71.3769 22.7631 71.3769 23.1664 71.2202 23.4744C71.0824 23.7454 70.8626 23.9657 70.5922 24.1038C70.2847 24.2607 69.8823 24.2607 69.0774 24.2607H65.6283V3.04408Z" fill="#FFDB00"/>
  <path d="M87.904 0.740007H91.3531C92.158 0.740007 92.5604 0.740007 92.8678 0.896962C93.1383 1.03502 93.3581 1.25532 93.4959 1.52628C93.6525 1.83433 93.6525 2.23758 93.6525 3.04408V10.1003H94.6201C95.0207 10.1003 95.221 10.1003 95.4063 10.0498C95.5705 10.005 95.7254 9.9314 95.8639 9.83236C96.0202 9.72058 96.1469 9.56518 96.4005 9.25439L102.656 1.58592C102.909 1.27512 103.036 1.11972 103.192 1.00794C103.331 0.908902 103.486 0.835291 103.65 0.790532C103.835 0.740013 104.036 0.740013 104.436 0.740013H109.817L101.54 10.9266C101.119 11.4447 100.909 11.7038 100.828 11.992C100.757 12.2461 100.757 12.5149 100.828 12.769C100.908 13.0572 101.119 13.3164 101.539 13.8348L110 24.2607H104.561C104.158 24.2607 103.957 24.2607 103.771 24.2098C103.607 24.1647 103.451 24.0905 103.312 23.9908C103.156 23.8782 103.029 23.7217 102.775 23.4087L96.3787 15.5124C96.1251 15.1994 95.9983 15.0429 95.8417 14.9303C95.7029 14.8306 95.5475 14.7564 95.3828 14.7113C95.1968 14.6604 94.9957 14.6604 94.5934 14.6604H93.6525V24.2547H90.2034C89.3985 24.2547 88.9961 24.2547 88.6887 24.0978C88.4183 23.9597 88.1984 23.7394 88.0606 23.4684C87.904 23.1604 87.904 22.7571 87.904 21.9506V0.740007Z" fill="#FFDB00"/>
  <path d="M32.1596 6.26021C32.1596 8.12026 29.9695 9.02029 29.9695 12.5004C29.9695 15.9805 32.1596 16.8805 32.1596 18.7406C32.1596 20.3312 30.8701 21.6207 29.2795 21.6207C27.6889 21.6207 26.3994 20.3312 26.3994 18.7406C26.3994 16.8805 28.6495 15.9805 28.6495 12.5004C28.6495 9.02029 26.3994 8.12026 26.3994 6.26021C26.3994 4.73016 27.6889 3.38013 29.2795 3.38013C30.8701 3.38013 32.1596 4.66959 32.1596 6.26021Z" fill="black"/>
</svg>
